<mxfile host="app.diagrams.net" modified="2020-12-04T21:53:58.401Z" agent="5.0 (Macintosh; Intel Mac OS X 10_15_6) AppleWebKit/605.1.15 (KHTML, like Gecko) Version/14.0.1 Safari/605.1.15" etag="hr-FMgKf0trmxKBXLqJE" version="13.10.8" type="github">
  <diagram id="jAhwxljwhNbG54JEEvyB" name="Page-1">
    <mxGraphModel dx="601" dy="645" grid="1" gridSize="10" guides="1" tooltips="1" connect="1" arrows="1" fold="1" page="1" pageScale="1" pageWidth="827" pageHeight="1169" math="0" shadow="0">
      <root>
        <mxCell id="0" />
        <mxCell id="1" parent="0" />
        <mxCell id="bej0GKpyscrUGXhnO5Y--8" value="" style="shape=folder;fontStyle=1;spacingTop=10;tabWidth=125;tabHeight=40;tabPosition=left;html=1;fontSize=10;" vertex="1" parent="1">
          <mxGeometry x="175" y="40" width="605" height="740" as="geometry" />
        </mxCell>
        <mxCell id="5G33NtFEvxfEJbMjsAAF-3" value="&lt;div&gt;&lt;font style=&quot;font-size: 14px&quot;&gt;Responsabile&lt;/font&gt;&lt;/div&gt;&lt;div&gt;&lt;font style=&quot;font-size: 14px&quot;&gt;Vendite&lt;br&gt;&lt;/font&gt;&lt;/div&gt;" style="shape=umlActor;verticalLabelPosition=bottom;verticalAlign=top;html=1;outlineConnect=0;" parent="1" vertex="1">
          <mxGeometry x="30" y="140" width="30" height="60" as="geometry" />
        </mxCell>
        <mxCell id="5G33NtFEvxfEJbMjsAAF-4" value="&lt;font style=&quot;font-size: 14px&quot;&gt;Magazziniere&lt;/font&gt;" style="shape=umlActor;verticalLabelPosition=bottom;verticalAlign=top;html=1;outlineConnect=0;" parent="1" vertex="1">
          <mxGeometry x="30" y="357" width="30" height="60" as="geometry" />
        </mxCell>
        <mxCell id="5G33NtFEvxfEJbMjsAAF-5" value="&lt;font style=&quot;font-size: 14px&quot;&gt;Commesso&lt;/font&gt;" style="shape=umlActor;verticalLabelPosition=bottom;verticalAlign=top;html=1;outlineConnect=0;" parent="1" vertex="1">
          <mxGeometry x="30" y="506" width="30" height="60" as="geometry" />
        </mxCell>
        <mxCell id="5G33NtFEvxfEJbMjsAAF-22" value="" style="endArrow=none;html=1;entryX=0;entryY=0.5;entryDx=0;entryDy=0;" parent="1" source="5G33NtFEvxfEJbMjsAAF-3" target="bej0GKpyscrUGXhnO5Y--1" edge="1">
          <mxGeometry width="50" height="50" relative="1" as="geometry">
            <mxPoint x="80" y="179" as="sourcePoint" />
            <mxPoint x="620" y="150" as="targetPoint" />
          </mxGeometry>
        </mxCell>
        <mxCell id="5G33NtFEvxfEJbMjsAAF-23" value="" style="endArrow=none;html=1;entryX=0;entryY=0.5;entryDx=0;entryDy=0;" parent="1" source="5G33NtFEvxfEJbMjsAAF-3" target="bej0GKpyscrUGXhnO5Y--2" edge="1">
          <mxGeometry width="50" height="50" relative="1" as="geometry">
            <mxPoint x="80" y="180" as="sourcePoint" />
            <mxPoint x="400" y="220" as="targetPoint" />
          </mxGeometry>
        </mxCell>
        <mxCell id="5G33NtFEvxfEJbMjsAAF-25" value="" style="shape=partialRectangle;whiteSpace=wrap;html=1;bottom=1;right=1;left=1;top=0;fillColor=none;routingCenterX=-0.5;rotation=-90;" parent="1" vertex="1">
          <mxGeometry x="-150" y="457.01" width="504" height="17.5" as="geometry" />
        </mxCell>
        <mxCell id="5G33NtFEvxfEJbMjsAAF-41" value="" style="endArrow=none;html=1;exitX=0;exitY=0.5;exitDx=0;exitDy=0;" parent="1" source="bej0GKpyscrUGXhnO5Y--4" target="5G33NtFEvxfEJbMjsAAF-3" edge="1">
          <mxGeometry width="50" height="50" relative="1" as="geometry">
            <mxPoint x="620" y="370" as="sourcePoint" />
            <mxPoint x="80" y="180" as="targetPoint" />
          </mxGeometry>
        </mxCell>
        <mxCell id="I9Vcyt5acB3gldshC_Cn-1" value="" style="endArrow=none;html=1;exitX=0.5;exitY=1;exitDx=0;exitDy=0;entryX=0;entryY=0.5;entryDx=0;entryDy=0;" parent="1" source="5G33NtFEvxfEJbMjsAAF-25" edge="1">
          <mxGeometry width="50" height="50" relative="1" as="geometry">
            <mxPoint x="409.25" y="456.26" as="sourcePoint" />
            <mxPoint x="279.25" y="426.76" as="targetPoint" />
          </mxGeometry>
        </mxCell>
        <mxCell id="I9Vcyt5acB3gldshC_Cn-2" value="" style="endArrow=none;html=1;exitX=0.5;exitY=1;exitDx=0;exitDy=0;entryX=0;entryY=0.5;entryDx=0;entryDy=0;" parent="1" source="5G33NtFEvxfEJbMjsAAF-25" edge="1">
          <mxGeometry width="50" height="50" relative="1" as="geometry">
            <mxPoint x="169.25" y="396.26" as="sourcePoint" />
            <mxPoint x="279.25" y="554.01" as="targetPoint" />
          </mxGeometry>
        </mxCell>
        <mxCell id="I9Vcyt5acB3gldshC_Cn-4" value="" style="endArrow=none;html=1;exitX=0.5;exitY=1;exitDx=0;exitDy=0;entryX=0;entryY=0.5;entryDx=0;entryDy=0;" parent="1" source="5G33NtFEvxfEJbMjsAAF-25" edge="1">
          <mxGeometry width="50" height="50" relative="1" as="geometry">
            <mxPoint x="409.25" y="456.26" as="sourcePoint" />
            <mxPoint x="279.25" y="688.51" as="targetPoint" />
          </mxGeometry>
        </mxCell>
        <mxCell id="2cgZHyOXTK3lWtXkF8lg-2" value="&lt;span style=&quot;font-size: 14px&quot;&gt;Direttore&lt;br&gt;&amp;nbsp;Generale&lt;/span&gt;" style="shape=umlActor;verticalLabelPosition=bottom;verticalAlign=top;html=1;outlineConnect=0;" parent="1" vertex="1">
          <mxGeometry x="30" y="680" width="30" height="60" as="geometry" />
        </mxCell>
        <mxCell id="2cgZHyOXTK3lWtXkF8lg-4" value="" style="endArrow=none;html=1;exitX=0.662;exitY=0.971;exitDx=0;exitDy=0;exitPerimeter=0;" parent="1" source="5G33NtFEvxfEJbMjsAAF-25" edge="1">
          <mxGeometry width="50" height="50" relative="1" as="geometry">
            <mxPoint x="159.25" y="506.26" as="sourcePoint" />
            <mxPoint x="69.25" y="383.4882448542214" as="targetPoint" />
          </mxGeometry>
        </mxCell>
        <mxCell id="2cgZHyOXTK3lWtXkF8lg-5" value="" style="endArrow=none;html=1;exitX=0.357;exitY=1.029;exitDx=0;exitDy=0;exitPerimeter=0;" parent="1" edge="1">
          <mxGeometry width="50" height="50" relative="1" as="geometry">
            <mxPoint x="111.25750000000005" y="533.8320000000001" as="sourcePoint" />
            <mxPoint x="69.25" y="532.6736297855546" as="targetPoint" />
          </mxGeometry>
        </mxCell>
        <mxCell id="bej0GKpyscrUGXhnO5Y--1" value="Aggiunta prodotto al catalogo" style="ellipse;whiteSpace=wrap;html=1;fontSize=10;" vertex="1" parent="1">
          <mxGeometry x="550" y="110" width="180" height="95.5" as="geometry" />
        </mxCell>
        <mxCell id="bej0GKpyscrUGXhnO5Y--2" value="Modifica del prezzo" style="ellipse;whiteSpace=wrap;html=1;fontSize=10;" vertex="1" parent="1">
          <mxGeometry x="550" y="230" width="180" height="95.5" as="geometry" />
        </mxCell>
        <mxCell id="bej0GKpyscrUGXhnO5Y--4" value="Rimozione prodotto dal catalogo" style="ellipse;whiteSpace=wrap;html=1;fontSize=10;" vertex="1" parent="1">
          <mxGeometry x="550" y="350" width="180" height="95.5" as="geometry" />
        </mxCell>
        <mxCell id="bej0GKpyscrUGXhnO5Y--5" value="Ricerca del prodotto nel catalogo" style="ellipse;whiteSpace=wrap;html=1;fontSize=10;" vertex="1" parent="1">
          <mxGeometry x="270" y="382.75" width="180" height="95.5" as="geometry" />
        </mxCell>
        <mxCell id="bej0GKpyscrUGXhnO5Y--6" value="Visualizzazione lista prodotti nel catalogo" style="ellipse;whiteSpace=wrap;html=1;fontSize=10;" vertex="1" parent="1">
          <mxGeometry x="270" y="510" width="180" height="95.5" as="geometry" />
        </mxCell>
        <mxCell id="bej0GKpyscrUGXhnO5Y--7" value="Visualizzazione informazioni prodotto" style="ellipse;whiteSpace=wrap;html=1;fontSize=10;" vertex="1" parent="1">
          <mxGeometry x="270" y="644.5" width="180" height="95.5" as="geometry" />
        </mxCell>
        <mxCell id="bej0GKpyscrUGXhnO5Y--9" value="&lt;div&gt;&lt;font style=&quot;font-size: 11px&quot;&gt;&lt;b&gt;Gestione Catalogo&lt;/b&gt;&lt;/font&gt;&lt;/div&gt;" style="text;html=1;strokeColor=none;fillColor=none;align=left;verticalAlign=middle;whiteSpace=wrap;rounded=0;" vertex="1" parent="1">
          <mxGeometry x="180" y="50" width="107.5" height="30" as="geometry" />
        </mxCell>
      </root>
    </mxGraphModel>
  </diagram>
</mxfile>
